<svg id="Logo" xmlns="http://www.w3.org/2000/svg" width="60" height="60" viewBox="0 0 60 60">
  <defs>
    <style>
      .cls-1 {
        fill: #fefefe;
      }
    </style>
  </defs>
  <path id="Path_10" data-name="Path 10" class="cls-1" d="M19.581,37.2h-6.4L8.43,71.54C7.987,74.454,6.086,76.1,2.918,76.1H0l-1.2,4.5a23.4,23.4,0,0,0,6.272.887c5.322.063,8.743-3.358,9.694-10.011Z" transform="translate(1.2 -24.488)"/>
  <path id="Path_9" data-name="Path 9" class="cls-1" d="M36.168,85.2H7.893L6.96,93.574Z" transform="translate(14.101 -36.574)"/>
  <path id="Path_8" data-name="Path 8" class="cls-1" d="M39.043,48.982c1.331-9.947-3.611-12.862-12.672-12.862a129.246,129.246,0,0,0-14.826.57L5.4,80.407h5.449l2.6-18.374,9.947.127c2.788,0,4.308,1.14,4.942,4.435l2.6,13.812h5.7L33.848,66.722c-.7-3.675-2.218-5.7-4.625-6.4l.063-.317C35.368,59.246,38.093,55.634,39.043,48.982ZM14.08,57.345,16.361,41c2.6,0,5.956-.063,9.884-.063,6.272,0,8.046,1.774,7.159,7.856-.95,6.589-3.548,8.49-9.947,8.553Z" transform="translate(17.743 -36.12)"/>
</svg>
